<svg version="1.1" id="Layer_1" xmlns="http://www.w3.org/2000/svg" xmlns:xlink="http://www.w3.org/1999/xlink" x="0px" y="0px"
	 width="100%" viewBox="0 0 720 720" enable-background="new 0 0 720 720" xml:space="preserve">
<path fill="#FFFFFF" opacity="1.000000" stroke="none" 
	d="
M0.999999,647.000000 
	C1.000000,456.640839 1.000000,266.281677 1.338062,75.758041 
	C2.116948,74.781281 2.741669,74.017624 2.971249,73.149467 
	C6.969759,58.029133 13.532220,44.221088 24.039310,32.507221 
	C37.821392,17.142221 54.583778,6.835488 75.039024,2.891292 
	C75.465073,2.809141 75.684288,1.654375 76.000000,1.000000 
	C265.692505,1.000000 455.385010,1.000000 645.239929,1.346916 
	C648.855896,2.799926 652.310425,3.903142 655.762878,5.012605 
	C674.318115,10.975436 689.532715,21.607719 701.592468,36.996082 
	C710.168335,47.938915 715.642944,60.203354 719.072571,73.539856 
	C719.229858,74.151352 720.335876,74.518852 721.000000,74.999992 
	C721.000000,265.359161 721.000000,455.718353 720.660767,646.241943 
	C719.958557,646.743408 719.419556,647.012268 719.258484,647.427673 
	C715.809204,656.324097 712.988647,665.521545 708.839294,674.075073 
	C703.571533,684.934082 695.123352,693.454346 685.776428,701.018188 
	C674.612061,710.052673 662.000488,716.050781 647.963806,719.106873 
	C647.525879,719.202209 647.316101,720.345337 647.000000,721.000000 
	C456.640839,721.000000 266.281677,721.000000 75.758011,720.661926 
	C75.112877,719.896606 74.702728,719.292542 74.141083,719.068604 
	C64.982262,715.418213 55.544537,712.351685 46.698132,708.063416 
	C36.276371,703.011536 28.201298,694.761902 21.014954,685.792358 
	C12.059029,674.614136 5.970187,662.000793 2.893159,647.960815 
	C2.797261,647.523254 1.654641,647.315125 0.999999,647.000000 
M98.218422,315.250519 
	C97.104614,315.906586 96.040283,316.672058 94.869247,317.201538 
	C84.651115,321.822083 76.902618,329.108429 71.458778,338.863831 
	C60.657005,358.220642 64.810326,387.625916 90.856682,402.607361 
	C145.581070,434.083862 200.203156,465.738159 254.900314,497.262115 
	C264.594849,502.849457 274.995056,504.837677 286.178497,503.076080 
	C304.465881,500.195404 319.993530,485.838013 324.420868,467.338287 
	C328.765137,449.185638 321.963196,429.506012 306.664795,419.242859 
	C294.790192,411.276611 282.187714,404.386841 269.837769,397.139526 
	C249.161758,385.006195 228.429184,372.969238 208.176041,360.347595 
	C238.902573,342.648315 269.680786,325.037903 300.337372,307.218323 
	C320.619110,295.429352 329.806213,274.353516 324.136780,253.498764 
	C315.817505,222.896606 281.924530,209.243698 253.886398,225.235580 
	C243.625290,231.088104 233.423477,237.044556 223.196518,242.956894 
	C181.731110,266.928497 140.266464,290.901367 98.218422,315.250519 
M513.501465,361.757782 
	C491.841980,374.221802 470.151428,386.632263 448.535828,399.171844 
	C437.304596,405.687256 425.782776,411.820007 415.132690,419.194916 
	C391.021210,435.891418 389.646790,472.651031 411.935913,491.785431 
	C428.376434,505.899109 448.870514,507.703583 468.576721,496.395782 
	C505.984741,474.930359 543.312866,453.325439 580.639343,431.718292 
	C595.325500,423.216949 609.918579,414.554565 625.148254,405.701080 
	C643.645081,397.207367 654.987915,383.273407 655.679504,362.566437 
	C656.319092,343.417389 647.305115,329.038879 630.790222,319.479980 
	C576.469971,288.039185 522.114197,256.659729 467.765747,225.267685 
	C457.779877,219.499741 447.147644,217.214340 435.620789,218.957443 
	C417.672882,221.671524 402.051453,235.940735 397.448700,254.137741 
	C392.858521,272.285187 399.556732,292.813354 414.959900,302.785431 
	C432.269287,313.991608 450.390167,323.945709 468.173309,334.418518 
	C483.508881,343.449921 498.865997,352.444763 513.501465,361.757782 
z"/>
<path fill="#000000" opacity="1.000000" stroke="none" 
	d="
M75.531342,1.000000 
	C75.684288,1.654375 75.465073,2.809141 75.039024,2.891292 
	C54.583778,6.835488 37.821392,17.142221 24.039310,32.507221 
	C13.532220,44.221088 6.969759,58.029133 2.971249,73.149467 
	C2.741669,74.017624 2.116948,74.781281 1.338062,75.296783 
	C1.000000,50.405975 1.000000,25.811947 1.000000,1.000000 
	C25.687134,1.000000 50.374908,1.000000 75.531342,1.000000 
z"/>
<path fill="#000000" opacity="1.000000" stroke="none" 
	d="
M721.000000,74.531334 
	C720.335876,74.518852 719.229858,74.151352 719.072571,73.539856 
	C715.642944,60.203354 710.168335,47.938915 701.592468,36.996082 
	C689.532715,21.607719 674.318115,10.975436 655.762878,5.012605 
	C652.310425,3.903142 648.855896,2.799926 645.701172,1.346916 
	C670.926392,1.000000 695.852722,1.000000 721.000000,1.000000 
	C721.000000,25.353783 721.000000,49.708233 721.000000,74.531334 
z"/>
<path fill="#000000" opacity="1.000000" stroke="none" 
	d="
M0.999999,647.468628 
	C1.654641,647.315125 2.797261,647.523254 2.893159,647.960815 
	C5.970187,662.000793 12.059029,674.614136 21.014954,685.792358 
	C28.201298,694.761902 36.276371,703.011536 46.698132,708.063416 
	C55.544537,712.351685 64.982262,715.418213 74.141083,719.068604 
	C74.702728,719.292542 75.112877,719.896606 75.296753,720.661926 
	C50.406464,721.000000 25.812927,721.000000 1.000000,721.000000 
	C1.000000,696.646240 1.000000,672.291748 0.999999,647.468628 
z"/>
<path fill="#000000" opacity="1.000000" stroke="none" 
	d="
M647.468628,721.000000 
	C647.316101,720.345337 647.525879,719.202209 647.963806,719.106873 
	C662.000488,716.050781 674.612061,710.052673 685.776428,701.018188 
	C695.123352,693.454346 703.571533,684.934082 708.839294,674.075073 
	C712.988647,665.521545 715.809204,656.324097 719.258484,647.427673 
	C719.419556,647.012268 719.958557,646.743408 720.660767,646.703186 
	C721.000000,671.593506 721.000000,696.187073 721.000000,721.000000 
	C696.646240,721.000000 672.291748,721.000000 647.468628,721.000000 
z"/>
<path fill="#109D59" opacity="1.000000" stroke="none" 
	d="
M514.213562,361.455780 
	C498.865997,352.444763 483.508881,343.449921 468.173309,334.418518 
	C450.390167,323.945709 432.269287,313.991608 414.959900,302.785431 
	C399.556732,292.813354 392.858521,272.285187 397.448700,254.137741 
	C402.051453,235.940735 417.672882,221.671524 435.620789,218.957443 
	C447.147644,217.214340 457.779877,219.499741 467.765747,225.267685 
	C522.114197,256.659729 576.469971,288.039185 630.790222,319.479980 
	C647.305115,329.038879 656.319092,343.417389 655.679504,362.566437 
	C654.987915,383.273407 643.645081,397.207367 624.406921,405.805267 
	C609.147705,410.303009 595.483521,408.321686 582.525391,400.553802 
	C575.685425,396.453522 568.755310,392.501801 561.828674,388.548248 
	C545.969177,379.496094 530.086670,370.484100 514.213562,361.455780 
z"/>
<path fill="#4385F4" opacity="1.000000" stroke="none" 
	d="
M207.720413,360.891724 
	C228.429184,372.969238 249.161758,385.006195 269.837769,397.139526 
	C282.187714,404.386841 294.790192,411.276611 306.664795,419.242859 
	C321.963196,429.506012 328.765137,449.185638 324.420868,467.338287 
	C319.993530,485.838013 304.465881,500.195404 286.178497,503.076080 
	C274.995056,504.837677 264.594849,502.849457 254.900314,497.262115 
	C200.203156,465.738159 145.581070,434.083862 90.856682,402.607361 
	C64.810326,387.625916 60.657005,358.220642 71.458778,338.863831 
	C76.902618,329.108429 84.651115,321.822083 94.869247,317.201538 
	C96.040283,316.672058 97.104614,315.906586 98.961288,315.116028 
	C106.963730,314.865112 114.309860,313.988647 121.463409,314.803284 
	C133.377197,316.160065 142.693436,323.854340 152.772552,329.516113 
	C171.161041,339.845520 189.412048,350.419678 207.720413,360.891724 
z"/>
<path fill="#EA4436" opacity="1.000000" stroke="none" 
	d="
M207.948227,360.619659 
	C189.412048,350.419678 171.161041,339.845520 152.772552,329.516113 
	C142.693436,323.854340 133.377197,316.160065 121.463409,314.803284 
	C114.309860,313.988647 106.963730,314.865112 99.252853,314.927673 
	C140.266464,290.901367 181.731110,266.928497 223.196518,242.956894 
	C233.423477,237.044556 243.625290,231.088104 253.886398,225.235580 
	C281.924530,209.243698 315.817505,222.896606 324.136780,253.498764 
	C329.806213,274.353516 320.619110,295.429352 300.337372,307.218323 
	C269.680786,325.037903 238.902573,342.648315 207.948227,360.619659 
z"/>
<path fill="#FBBC05" opacity="1.000000" stroke="none" 
	d="
M513.857544,361.606781 
	C530.086670,370.484100 545.969177,379.496094 561.828674,388.548248 
	C568.755310,392.501801 575.685425,396.453522 582.525391,400.553802 
	C595.483521,408.321686 609.147705,410.303009 624.109863,405.937500 
	C609.918579,414.554565 595.325500,423.216949 580.639343,431.718292 
	C543.312866,453.325439 505.984741,474.930359 468.576721,496.395782 
	C448.870514,507.703583 428.376434,505.899109 411.935913,491.785431 
	C389.646790,472.651031 391.021210,435.891418 415.132690,419.194916 
	C425.782776,411.820007 437.304596,405.687256 448.535828,399.171844 
	C470.151428,386.632263 491.841980,374.221802 513.857544,361.606781 
z"/>
</svg>